<svg width="64" height="64" viewBox="0 0 64 64" fill="none" xmlns="http://www.w3.org/2000/svg">
<rect width="64" height="64" rx="8" fill="#1E293B"/>
<path d="M10.7667 43V23.456H14.4067V39.78H22.1347V43H10.7667ZM25.0896 43V28.384H28.6176V43H25.0896ZM26.8536 26.2C26.1442 26.2 25.6216 26.032 25.2856 25.696C24.9496 25.36 24.7816 24.94 24.7816 24.436V23.904C24.7816 23.3813 24.9496 22.952 25.2856 22.616C25.6216 22.28 26.1442 22.112 26.8536 22.112C27.5816 22.112 28.1042 22.28 28.4216 22.616C28.7576 22.952 28.9256 23.3813 28.9256 23.904V24.436C28.9256 24.94 28.7576 25.36 28.4216 25.696C28.1042 26.032 27.5816 26.2 26.8536 26.2ZM32.7732 43V28.384H36.3012V30.82H36.4412C36.7212 30.0547 37.1692 29.4013 37.7852 28.86C38.4198 28.3187 39.2785 28.048 40.3612 28.048C41.3505 28.048 42.2185 28.2907 42.9652 28.776C43.7118 29.2613 44.2532 30.008 44.5892 31.016H44.6732C44.9345 30.1947 45.4478 29.4947 46.2132 28.916C46.9972 28.3373 47.9678 28.048 49.1252 28.048C50.5625 28.048 51.6638 28.552 52.4292 29.56C53.2132 30.5493 53.6052 31.9493 53.6052 33.76V43H50.1052V34.124C50.1052 33.06 49.9092 32.2667 49.5172 31.744C49.1438 31.2213 48.5372 30.96 47.6972 30.96C47.2305 30.96 46.7825 31.044 46.3532 31.212C45.9425 31.38 45.6065 31.6413 45.3452 31.996C45.0838 32.3507 44.9532 32.7893 44.9532 33.312V43H41.4532V34.124C41.4532 33.06 41.2572 32.2667 40.8652 31.744C40.4732 31.2213 39.8758 30.96 39.0732 30.96C38.6065 30.96 38.1585 31.044 37.7292 31.212C37.3185 31.38 36.9732 31.6413 36.6932 31.996C36.4318 32.3507 36.3012 32.7893 36.3012 33.312V43H32.7732Z" fill="white"/>
</svg>
